<svg width="21" height="21" viewBox="0 0 21 21" fill="none" xmlns="http://www.w3.org/2000/svg">
<path d="M10.5197 20.7972C4.99665 20.7972 0.519653 16.3202 0.519653 10.7972C0.519653 5.27424 4.99665 0.797241 10.5197 0.797241C16.0427 0.797241 20.5197 5.27424 20.5197 10.7972C20.5197 16.3202 16.0427 20.7972 10.5197 20.7972ZM10.5197 18.7972C12.6414 18.7972 14.6762 17.9544 16.1765 16.4541C17.6768 14.9538 18.5197 12.919 18.5197 10.7972C18.5197 8.67551 17.6768 6.64068 16.1765 5.14039C14.6762 3.6401 12.6414 2.79724 10.5197 2.79724C8.39792 2.79724 6.36309 3.6401 4.8628 5.14039C3.36251 6.64068 2.51965 8.67551 2.51965 10.7972C2.51965 12.919 3.36251 14.9538 4.8628 16.4541C6.36309 17.9544 8.39792 18.7972 10.5197 18.7972ZM9.51965 13.7972H11.5197V15.7972H9.51965V13.7972ZM11.5197 12.1522V12.7972H9.51965V11.2972C9.51965 11.032 9.62501 10.7777 9.81255 10.5901C10.0001 10.4026 10.2544 10.2972 10.5197 10.2972C10.8037 10.2972 11.082 10.2165 11.322 10.0646C11.562 9.9126 11.7539 9.69561 11.8754 9.43882C11.9969 9.18204 12.043 8.89604 12.0083 8.61408C11.9736 8.33213 11.8596 8.06583 11.6795 7.84615C11.4994 7.62648 11.2606 7.46247 10.9909 7.37321C10.7212 7.28395 10.4317 7.27311 10.1561 7.34195C9.88047 7.41078 9.63007 7.55647 9.43402 7.76206C9.23797 7.96764 9.10433 8.22467 9.04865 8.50324L7.08665 8.11024C7.20829 7.50233 7.48916 6.93761 7.90057 6.47383C8.31198 6.01004 8.83917 5.66382 9.42824 5.47056C10.0173 5.2773 10.6471 5.24393 11.2533 5.37386C11.8595 5.50379 12.4204 5.79235 12.8785 6.21007C13.3366 6.62778 13.6756 7.15965 13.8608 7.7513C14.046 8.34296 14.0707 8.97319 13.9325 9.57755C13.7943 10.1819 13.4981 10.7387 13.0742 11.1911C12.6502 11.6435 12.1138 11.9752 11.5197 12.1522Z" fill="white"/>
</svg>
