<svg width="51" height="51" viewBox="0 0 51 51" fill="none" xmlns="http://www.w3.org/2000/svg">
<rect x="0.310547" y="0.266602" width="50" height="50" rx="20" fill="#161D26"/>
<path d="M29.6759 19.6804C27.7859 19.6804 26.9872 20.5823 25.6709 20.5823C24.3214 20.5823 23.292 19.687 21.6542 19.687C20.0511 19.687 18.3416 20.6657 17.2559 22.3331C15.7316 24.6843 15.9903 29.1126 18.4592 32.8851C19.3423 34.2356 20.5217 35.7501 22.0686 35.7665H22.0967C23.4411 35.7665 23.8405 34.8862 25.6906 34.8759H25.7187C27.5412 34.8759 27.9069 35.7614 29.2456 35.7614H29.2737C30.8206 35.7449 32.0633 34.0668 32.9464 32.7215C33.582 31.754 33.8183 31.2684 34.3058 30.1739C30.7344 28.8182 30.1606 23.7553 33.6926 21.8142C32.6145 20.4642 31.0995 19.6823 29.6712 19.6823L29.6759 19.6804Z" fill="white"/>
<path d="M29.2596 14.7678C28.1346 14.8442 26.8221 15.5605 26.0534 16.4956C25.3559 17.3431 24.7821 18.6003 25.0071 19.8195H25.0971C26.2953 19.8195 27.5215 19.0981 28.2378 18.1738C28.9278 17.2939 29.4509 16.047 29.2596 14.7678Z" fill="white"/>
</svg>
