<svg width="24" height="27" viewBox="0 0 24 27" fill="none" xmlns="http://www.w3.org/2000/svg">
<g clip-path="url(#clip0_33_2294)">
<path d="M10 3.60455H14C16.1217 3.60455 18.1566 4.53213 19.6569 6.18323C21.1571 7.83433 22 10.0737 22 12.4087C22 14.7437 21.1571 16.9831 19.6569 18.6342C18.1566 20.2853 16.1217 21.2128 14 21.2128V25.0647C9 22.8636 2 19.5621 2 12.4087C2 10.0737 2.84285 7.83433 4.34315 6.18323C5.84344 4.53213 7.87827 3.60455 10 3.60455V3.60455ZM12 19.0118H14C14.7879 19.0118 15.5681 18.841 16.2961 18.5092C17.0241 18.1773 17.6855 17.691 18.2426 17.0778C18.7998 16.4646 19.2417 15.7367 19.5433 14.9356C19.8448 14.1345 20 13.2758 20 12.4087C20 11.5416 19.8448 10.6829 19.5433 9.8818C19.2417 9.08067 18.7998 8.35275 18.2426 7.7396C17.6855 7.12644 17.0241 6.64006 16.2961 6.30822C15.5681 5.97638 14.7879 5.80559 14 5.80559H10C8.4087 5.80559 6.88258 6.50127 5.75736 7.7396C4.63214 8.97792 4 10.6574 4 12.4087C4 16.3816 6.462 18.9744 12 21.7411V19.0118Z" fill="#F0F4F7"/>
</g>
<defs>
<clipPath id="clip0_33_2294">
<rect width="24" height="26.4124" fill="white" transform="translate(0 0.302979)"/>
</clipPath>
</defs>
</svg>
