<svg width="17" height="17" viewBox="0 0 17 17" fill="none" xmlns="http://www.w3.org/2000/svg">
<path d="M8.57919 14.2168C7.41547 14.2168 6.27788 13.8649 5.31028 13.2056C4.34269 12.5463 3.58853 11.6093 3.1432 10.5129C2.69786 9.41654 2.58134 8.21014 2.80837 7.04626C3.0354 5.88237 3.59579 4.81327 4.41866 3.97416C5.24154 3.13504 6.28994 2.5636 7.4313 2.33209C8.57266 2.10058 9.75571 2.2194 10.8308 2.67352C11.906 3.12765 12.8249 3.89668 13.4714 4.88338C14.118 5.87007 14.4631 7.03011 14.4631 8.2168C14.4631 9.8081 13.8432 11.3342 12.7397 12.4594C11.6363 13.5847 10.1397 14.2168 8.57919 14.2168ZM8.57919 13.0168C9.51016 13.0168 10.4202 12.7353 11.1943 12.2079C11.9684 11.6804 12.5717 10.9308 12.928 10.0537C13.2842 9.1766 13.3775 8.21148 13.1958 7.28037C13.0142 6.34926 12.5659 5.49398 11.9076 4.82269C11.2493 4.1514 10.4106 3.69424 9.4975 3.50903C8.58441 3.32382 7.63797 3.41888 6.77786 3.78218C5.91775 4.14548 5.1826 4.76071 4.66538 5.55006C4.14816 6.33942 3.87209 7.26745 3.87209 8.2168C3.87209 9.48984 4.36801 10.7107 5.25077 11.6109C6.13352 12.5111 7.33079 13.0168 8.57919 13.0168ZM7.9908 10.6168L5.49604 8.0708L6.3237 7.2228L7.9908 8.9168L11.325 5.5258L12.1576 6.3738L7.9908 10.6168Z" fill="#C4C4C4"/>
</svg>
