<svg width="51" height="50" viewBox="0 0 51 50" fill="none" xmlns="http://www.w3.org/2000/svg">
<rect x="0.447266" width="50" height="50" rx="20" fill="#161D26"/>
<path d="M25.4473 14.8965C22.7951 14.8965 20.2516 15.9501 18.3762 17.8254C16.5008 19.7008 15.4473 22.2443 15.4473 24.8965C15.4473 27.5486 16.5008 30.0922 18.3762 31.9676C20.2516 33.8429 22.7951 34.8965 25.4473 34.8965C28.0994 34.8965 30.643 33.8429 32.5183 31.9676C34.3937 30.0922 35.4473 27.5486 35.4473 24.8965C35.4473 22.2443 34.3937 19.7008 32.5183 17.8254C30.643 15.9501 28.0994 14.8965 25.4473 14.8965Z" fill="#1565C0"/>
<path d="M26.7983 27.5469H29.3862L29.7925 24.918H26.7978V23.4811C26.7978 22.389 27.1546 21.4206 28.1762 21.4206H29.8178V19.1264C29.5293 19.0875 28.9193 19.0022 27.7667 19.0022C25.3599 19.0022 23.9488 20.2733 23.9488 23.169V24.918H21.4746V27.5469H23.9488V34.7727C24.4388 34.8464 24.9351 34.8964 25.4446 34.8964C25.9051 34.8964 26.3546 34.8543 26.7983 34.7943V27.5469Z" fill="white"/>
</svg>
