<svg width="11" height="12" viewBox="0 0 11 12" fill="none" xmlns="http://www.w3.org/2000/svg">
<path d="M9.5284 4.72892H10.1117C10.2664 4.72892 10.4148 4.79038 10.5242 4.89978C10.6336 5.00917 10.6951 5.15755 10.6951 5.31226V11.1456C10.6951 11.3003 10.6336 11.4487 10.5242 11.5581C10.4148 11.6675 10.2664 11.7289 10.1117 11.7289H0.778402C0.623692 11.7289 0.475319 11.6675 0.365923 11.5581C0.256526 11.4487 0.195068 11.3003 0.195068 11.1456V5.31226C0.195068 5.15755 0.256526 5.00917 0.365923 4.89978C0.475319 4.79038 0.623692 4.72892 0.778402 4.72892H1.36173V4.14559C1.36173 3.60936 1.46735 3.07838 1.67256 2.58297C1.87777 2.08755 2.17854 1.63741 2.55772 1.25824C2.93689 0.879064 3.38703 0.578288 3.88244 0.373081C4.37786 0.167874 4.90884 0.0622559 5.44507 0.0622559C5.9813 0.0622559 6.51228 0.167874 7.00769 0.373081C7.50311 0.578288 7.95325 0.879064 8.33242 1.25824C8.71159 1.63741 9.01237 2.08755 9.21758 2.58297C9.42278 3.07838 9.5284 3.60936 9.5284 4.14559V4.72892ZM8.36173 4.72892V4.14559C8.36173 3.37204 8.05444 2.63018 7.50746 2.08319C6.96048 1.53621 6.21862 1.22892 5.44507 1.22892C4.67152 1.22892 3.92965 1.53621 3.38267 2.08319C2.83569 2.63018 2.5284 3.37204 2.5284 4.14559V4.72892H8.36173ZM4.86173 7.06226V9.39559H6.0284V7.06226H4.86173Z" fill="white"/>
</svg>
