<svg width="24" height="28" viewBox="0 0 24 28" fill="none" xmlns="http://www.w3.org/2000/svg">
<path d="M21 15.5513V22.9886H22V25.1897H2V22.9886H3V15.5513C2.38437 15.0991 1.87971 14.4866 1.53082 13.7682C1.18193 13.0499 0.999592 12.2478 1 11.4332C1 10.5231 1.224 9.64597 1.633 8.89871L4.345 3.72958C4.43277 3.56228 4.559 3.42336 4.71101 3.32677C4.86303 3.23018 5.03547 3.17933 5.211 3.17932H18.79C18.9655 3.17933 19.138 3.23018 19.29 3.32677C19.442 3.42336 19.5682 3.56228 19.656 3.72958L22.358 8.88221C22.9546 9.97268 23.1463 11.2742 22.8934 12.5163C22.6405 13.7583 21.9624 14.8453 21 15.5513ZM19 16.3547C18.3124 16.4396 17.6163 16.3487 16.9659 16.0891C16.3155 15.8295 15.7283 15.4082 15.25 14.858C14.8302 15.3412 14.3258 15.7258 13.7672 15.9885C13.2086 16.2513 12.6075 16.3867 12 16.3866C11.3927 16.387 10.7916 16.2519 10.233 15.9895C9.67445 15.7272 9.16996 15.343 8.75 14.8602C8.27163 15.4102 7.68437 15.8313 7.03395 16.0907C6.38353 16.3501 5.68749 16.4408 5 16.3558V22.9886H19V16.3558V16.3547ZM5.789 5.38036L3.356 10.0168C3.11958 10.6597 3.11248 11.3771 3.33613 12.0255C3.55978 12.6739 3.99768 13.2054 4.56218 13.5136C5.12668 13.8219 5.77614 13.8841 6.38058 13.688C6.98502 13.4918 7.49984 13.0516 7.822 12.4556C8.157 11.5345 9.342 11.5345 9.678 12.4556C9.8633 12.9667 10.1836 13.4049 10.5975 13.7136C11.0115 14.0223 11.5 14.1873 12 14.1873C12.5 14.1873 12.9885 14.0223 13.4025 13.7136C13.8164 13.4049 14.1367 12.9667 14.322 12.4556C14.657 11.5345 15.842 11.5345 16.178 12.4556C16.3078 12.8071 16.5022 13.1254 16.7491 13.3902C16.996 13.6551 17.2901 13.8609 17.6127 13.9947C17.9354 14.1285 18.2797 14.1874 18.6241 14.1676C18.9684 14.1479 19.3053 14.05 19.6136 13.8801C19.9219 13.7102 20.1949 13.472 20.4155 13.1803C20.6361 12.8887 20.7995 12.55 20.8955 12.1855C20.9914 11.821 21.0178 11.4386 20.973 11.0624C20.9281 10.6861 20.8131 10.3242 20.635 9.99923L18.21 5.38036H5.79H5.789Z" fill="#F0F4F7"/>
</svg>
