<svg width="24" height="27" viewBox="0 0 24 27" fill="none" xmlns="http://www.w3.org/2000/svg">
<g clip-path="url(#clip0_33_2264)">
<path d="M19 24.5689H5C4.20435 24.5689 3.44129 24.2211 2.87868 23.6019C2.31607 22.9827 2 22.143 2 21.2673V3.65905C2 3.36718 2.10536 3.08725 2.29289 2.88087C2.48043 2.67448 2.73478 2.55853 3 2.55853H17C17.2652 2.55853 17.5196 2.67448 17.7071 2.88087C17.8946 3.08725 18 3.36718 18 3.65905V16.8653H22V21.2673C22 22.143 21.6839 22.9827 21.1213 23.6019C20.5587 24.2211 19.7956 24.5689 19 24.5689ZM18 19.0663V21.2673C18 21.5592 18.1054 21.8391 18.2929 22.0455C18.4804 22.2519 18.7348 22.3679 19 22.3679C19.2652 22.3679 19.5196 22.2519 19.7071 22.0455C19.8946 21.8391 20 21.5592 20 21.2673V19.0663H18ZM16 22.3679V4.75957H4V21.2673C4 21.5592 4.10536 21.8391 4.29289 22.0455C4.48043 22.2519 4.73478 22.3679 5 22.3679H16ZM6 8.06112H14V10.2622H6V8.06112ZM6 12.4632H14V14.6642H6V12.4632ZM6 16.8653H11V19.0663H6V16.8653Z" fill="#F0F4F7"/>
</g>
<defs>
<clipPath id="clip0_33_2264">
<rect width="24" height="26.4124" fill="white" transform="translate(0 0.357483)"/>
</clipPath>
</defs>
</svg>
