<svg width="20" height="20" viewBox="0 0 20 20" fill="none" xmlns="http://www.w3.org/2000/svg">
<path d="M10.3086 20C4.78559 20 0.308594 15.523 0.308594 10C0.308594 4.477 4.78559 0 10.3086 0C15.8316 0 20.3086 4.477 20.3086 10C20.3086 15.523 15.8316 20 10.3086 20ZM10.3086 18C12.4303 18 14.4652 17.1571 15.9654 15.6569C17.4657 14.1566 18.3086 12.1217 18.3086 10C18.3086 7.87827 17.4657 5.84344 15.9654 4.34315C14.4652 2.84285 12.4303 2 10.3086 2C8.18686 2 6.15203 2.84285 4.65174 4.34315C3.15145 5.84344 2.30859 7.87827 2.30859 10C2.30859 12.1217 3.15145 14.1566 4.65174 15.6569C6.15203 17.1571 8.18686 18 10.3086 18V18ZM9.30859 10.792C8.78219 10.5623 8.35095 10.1583 8.08738 9.64797C7.82381 9.13767 7.74398 8.55217 7.86133 7.98994C7.97867 7.4277 8.28603 6.92302 8.73172 6.56075C9.17741 6.19847 9.73424 6.00071 10.3086 6.00071C10.8829 6.00071 11.4398 6.19847 11.8855 6.56075C12.3312 6.92302 12.6385 7.4277 12.7559 7.98994C12.8732 8.55217 12.7934 9.13767 12.5298 9.64797C12.2662 10.1583 11.835 10.5623 11.3086 10.792V14H9.30859V10.792Z" fill="#C4C4C4"/>
</svg>
