<svg width="24" height="27" viewBox="0 0 24 27" fill="none" xmlns="http://www.w3.org/2000/svg">
<path d="M4.40601 16.0098L7.80801 12.2658L10.636 15.3792L13.793 11.9048L12 9.93161H17V15.4342L15.207 13.461L10.636 18.4914L7.80801 15.3792L5.33301 18.1019C6.45642 19.9627 8.18063 21.2839 10.1562 21.7978C12.1318 22.3116 14.2111 21.9797 15.9726 20.8693C17.7342 19.7589 19.0462 17.953 19.6429 15.8176C20.2397 13.6822 20.0764 11.377 19.1863 9.36917C18.2961 7.36131 16.7456 5.80095 14.8491 5.00431C12.9525 4.20766 10.8516 4.2343 8.97219 5.07884C7.09279 5.92338 5.57541 7.52263 4.72754 9.55254C3.87967 11.5824 3.76473 13.8912 4.40601 16.0109V16.0098ZM2.86801 17.7244L2.85801 17.7134L2.86201 17.709C2.29194 16.3003 1.99821 14.7752 2.00001 13.2332C2.00001 7.155 6.47701 2.22798 12 2.22798C17.523 2.22798 22 7.155 22 13.2332C22 19.3113 17.523 24.2383 12 24.2383C7.93001 24.2383 4.43001 21.5641 2.86801 17.7244Z" fill="#F0F4F7"/>
</svg>
