<svg width="17" height="21" viewBox="0 0 17 21" fill="none" xmlns="http://www.w3.org/2000/svg">
<path d="M3.47153 15.3494C2.08299 14.3702 1.04228 12.9743 0.500165 11.364C-0.0419489 9.75376 -0.0573026 8.01271 0.456329 6.39312C0.96996 4.77354 1.9859 3.35955 3.35695 2.35601C4.728 1.35248 6.38295 0.811523 8.08203 0.811523C9.78111 0.811523 11.4361 1.35248 12.8071 2.35601C14.1782 3.35955 15.1941 4.77354 15.7077 6.39312C16.2214 8.01271 16.206 9.75376 15.6639 11.364C15.1218 12.9743 14.0811 14.3702 12.6925 15.3494L14.7755 20.1094C14.809 20.1856 14.8229 20.2689 14.816 20.3518C14.8091 20.4347 14.7816 20.5146 14.736 20.5843C14.6904 20.6539 14.6282 20.711 14.5549 20.7505C14.4817 20.79 14.3997 20.8106 14.3165 20.8104H1.84653C1.76345 20.8105 1.68164 20.7899 1.60851 20.7505C1.53538 20.711 1.47322 20.654 1.42766 20.5845C1.3821 20.5151 1.35458 20.4353 1.34757 20.3525C1.34056 20.2697 1.3543 20.1865 1.38753 20.1104L3.47053 15.3494H3.47153ZM10.2065 14.6564L11.5385 13.7154C12.5803 12.9812 13.3611 11.9343 13.768 10.7266C14.1749 9.51884 14.1867 8.21289 13.8016 6.99802C13.4165 5.78314 12.6545 4.72244 11.6262 3.96963C10.5978 3.21682 9.35648 2.81101 8.08203 2.81101C6.80758 2.81101 5.56623 3.21682 4.53788 3.96963C3.50953 4.72244 2.7476 5.78314 2.3625 6.99802C1.9774 8.21289 1.98915 9.51884 2.39603 10.7266C2.80292 11.9343 3.58381 12.9812 4.62553 13.7154L5.95653 14.6564L4.13953 18.8104H12.0235L10.2065 14.6564ZM4.20053 9.78036L6.14053 9.29536C6.24819 9.72872 6.49778 10.1136 6.84954 10.3887C7.2013 10.6637 7.63499 10.8132 8.08153 10.8132C8.52807 10.8132 8.96176 10.6637 9.31352 10.3887C9.66528 10.1136 9.91487 9.72872 10.0225 9.29536L11.9625 9.78036C11.745 10.6448 11.245 11.412 10.542 11.96C9.8389 12.5081 8.97297 12.8057 8.08153 12.8057C7.19009 12.8057 6.32416 12.5081 5.6211 11.96C4.91803 11.412 4.41808 10.6448 4.20053 9.78036Z" fill="#C4C4C4"/>
</svg>
