<svg width="24" height="27" viewBox="0 0 24 27" fill="none" xmlns="http://www.w3.org/2000/svg">
<path d="M18 7.75647H21C21.2652 7.75647 21.5196 7.87242 21.7071 8.07881C21.8946 8.28519 22 8.56512 22 8.85699V22.0632C22 22.3551 21.8946 22.635 21.7071 22.8414C21.5196 23.0478 21.2652 23.1637 21 23.1637H3C2.73478 23.1637 2.48043 23.0478 2.29289 22.8414C2.10536 22.635 2 22.3551 2 22.0632V4.45492C2 4.16304 2.10536 3.88312 2.29289 3.67673C2.48043 3.47035 2.73478 3.3544 3 3.3544H18V7.75647ZM4 9.95751V20.9627H20V9.95751H4ZM4 5.55544V7.75647H16V5.55544H4ZM15 14.3596H18V16.5606H15V14.3596Z" fill="#F0F4F7"/>
</svg>
