<svg width="24" height="31" viewBox="0 0 24 31" fill="none" xmlns="http://www.w3.org/2000/svg">
<g clip-path="url(#clip0_1_1907)">
<path d="M4 2.70941H20C20.2652 2.70941 20.5196 2.84196 20.7071 3.07789C20.8946 3.31382 21 3.63381 21 3.96747V26.6124C21 26.9461 20.8946 27.2661 20.7071 27.502C20.5196 27.738 20.2652 27.8705 20 27.8705H4C3.73478 27.8705 3.48043 27.738 3.29289 27.502C3.10536 27.2661 3 26.9461 3 26.6124V3.96747C3 3.63381 3.10536 3.31382 3.29289 3.07789C3.48043 2.84196 3.73478 2.70941 4 2.70941ZM5 5.22552V25.3544H19V5.22552H5ZM7 7.74163H17V12.7738H7V7.74163ZM7 15.29H9V17.8061H7V15.29ZM7 20.3222H9V22.8383H7V20.3222ZM11 15.29H13V17.8061H11V15.29ZM11 20.3222H13V22.8383H11V20.3222ZM15 15.29H17V22.8383H15V15.29Z" fill="white"/>
</g>
<defs>
<clipPath id="clip0_1_1907">
<rect width="24" height="30.1933" fill="white" transform="translate(0 0.193298)"/>
</clipPath>
</defs>
</svg>
