<svg width="13" height="22" viewBox="0 0 13 22" fill="none" xmlns="http://www.w3.org/2000/svg">
<g clip-path="url(#clip0_1_1889)">
<path d="M12.0559 14.248C12.0559 15.048 11.8559 15.8 11.4559 16.504C11.0719 17.208 10.4959 17.8 9.72794 18.28C8.97594 18.76 8.07994 19.048 7.03994 19.144V21.088H5.47994V19.144C3.97594 19 2.75994 18.528 1.83194 17.728C0.903941 16.928 0.439941 15.872 0.439941 14.56H3.36794C3.41594 15.184 3.61594 15.704 3.96794 16.12C4.31994 16.52 4.82394 16.776 5.47994 16.888V11.608C4.40794 11.336 3.53594 11.064 2.86394 10.792C2.19194 10.504 1.61594 10.056 1.13594 9.448C0.671941 8.84 0.439941 8.008 0.439941 6.952C0.439941 5.624 0.903941 4.528 1.83194 3.664C2.75994 2.784 3.97594 2.272 5.47994 2.128V0.183998H7.03994V2.128C8.44794 2.256 9.57594 2.704 10.4239 3.472C11.2879 4.224 11.7759 5.264 11.8879 6.592H8.95994C8.91194 6.096 8.71994 5.656 8.38394 5.272C8.04794 4.872 7.59994 4.6 7.03994 4.456V9.64C8.11194 9.896 8.98394 10.168 9.65594 10.456C10.3279 10.728 10.8959 11.168 11.3599 11.776C11.8239 12.368 12.0559 13.192 12.0559 14.248ZM3.22394 6.808C3.22394 7.464 3.41594 7.976 3.79994 8.344C4.19994 8.712 4.75994 9.008 5.47994 9.232V4.384C4.79194 4.464 4.23994 4.712 3.82394 5.128C3.42394 5.544 3.22394 6.104 3.22394 6.808ZM7.03994 16.888C7.74394 16.776 8.29594 16.496 8.69594 16.048C9.09594 15.584 9.29594 15.032 9.29594 14.392C9.29594 13.752 9.09594 13.256 8.69594 12.904C8.31194 12.536 7.75994 12.24 7.03994 12.016V16.888Z" fill="white"/>
</g>
<defs>
<clipPath id="clip0_1_1889">
<rect width="13" height="22" fill="white"/>
</clipPath>
</defs>
</svg>
