<svg width="16" height="18" viewBox="0 0 16 18" fill="none" xmlns="http://www.w3.org/2000/svg">
<g clip-path="url(#clip0_143_2608)">
<path d="M6.66732 5.45141C6.66718 6.4717 6.94319 7.4689 7.46014 8.31585C7.97708 9.1628 8.71154 9.8211 9.56984 10.2068C10.4281 10.5925 11.3714 10.6881 12.2792 10.4815C13.1871 10.2748 14.0185 9.77521 14.6673 9.04644V9.11981C14.6673 13.1719 11.6827 16.4566 8.00065 16.4566C4.31865 16.4566 1.33398 13.1719 1.33398 9.11981C1.33398 5.0677 4.31865 1.78302 8.00065 1.78302H8.06732C7.62334 2.26074 7.27075 2.83142 7.0303 3.46144C6.78986 4.09147 6.66644 4.76808 6.66732 5.45141ZM2.66732 9.11981C2.66683 10.4294 3.06434 11.7016 3.79658 12.7339C4.52882 13.7662 5.55374 14.4993 6.70826 14.8167C7.86278 15.134 9.08057 15.0173 10.1679 14.4852C11.2552 13.953 12.1495 13.036 12.7087 11.8799C11.7136 12.1379 10.6752 12.1118 9.69187 11.8041C8.70856 11.4965 7.81299 10.9174 7.09013 10.1219C6.36726 9.32634 5.84108 8.34074 5.56151 7.2586C5.28193 6.17645 5.25823 5.03363 5.49265 3.93857C4.63904 4.43904 3.92517 5.18558 3.42749 6.09826C2.9298 7.01094 2.66704 8.0554 2.66732 9.11981Z" fill="#F5F9FD"/>
</g>
<defs>
<clipPath id="clip0_143_2608">
<rect width="16" height="17.6083" fill="white" transform="translate(0 0.315491)"/>
</clipPath>
</defs>
</svg>
