<svg width="24" height="27" viewBox="0 0 24 27" fill="none" xmlns="http://www.w3.org/2000/svg">
<path d="M6.5 13.0176C5.90905 13.0176 5.32389 12.8895 4.77792 12.6406C4.23196 12.3918 3.73588 12.027 3.31802 11.5671C2.90016 11.1072 2.56869 10.5613 2.34254 9.96046C2.1164 9.35962 2 8.71563 2 8.06529C2 7.41494 2.1164 6.77095 2.34254 6.17011C2.56869 5.56927 2.90016 5.02332 3.31802 4.56346C3.73588 4.10359 4.23196 3.73881 4.77792 3.48993C5.32389 3.24105 5.90905 3.11295 6.5 3.11295C7.69347 3.11295 8.83807 3.63472 9.68198 4.56346C10.5259 5.4922 11 6.75185 11 8.06529C11 9.37873 10.5259 10.6384 9.68198 11.5671C8.83807 12.4959 7.69347 13.0176 6.5 13.0176ZM7 24.0228C5.80653 24.0228 4.66193 23.501 3.81802 22.5723C2.97411 21.6436 2.5 20.3839 2.5 19.0705C2.5 17.757 2.97411 16.4974 3.81802 15.5686C4.66193 14.6399 5.80653 14.1181 7 14.1181C8.19347 14.1181 9.33807 14.6399 10.182 15.5686C11.0259 16.4974 11.5 17.757 11.5 19.0705C11.5 20.3839 11.0259 21.6436 10.182 22.5723C9.33807 23.501 8.19347 24.0228 7 24.0228ZM17 13.0176C16.4091 13.0176 15.8239 12.8895 15.2779 12.6406C14.732 12.3918 14.2359 12.027 13.818 11.5671C13.4002 11.1072 13.0687 10.5613 12.8425 9.96046C12.6164 9.35962 12.5 8.71563 12.5 8.06529C12.5 7.41494 12.6164 6.77095 12.8425 6.17011C13.0687 5.56927 13.4002 5.02332 13.818 4.56346C14.2359 4.10359 14.732 3.73881 15.2779 3.48993C15.8239 3.24105 16.4091 3.11295 17 3.11295C18.1935 3.11295 19.3381 3.63472 20.182 4.56346C21.0259 5.4922 21.5 6.75185 21.5 8.06529C21.5 9.37873 21.0259 10.6384 20.182 11.5671C19.3381 12.4959 18.1935 13.0176 17 13.0176ZM17 24.0228C15.8065 24.0228 14.6619 23.501 13.818 22.5723C12.9741 21.6436 12.5 20.3839 12.5 19.0705C12.5 17.757 12.9741 16.4974 13.818 15.5686C14.6619 14.6399 15.8065 14.1181 17 14.1181C18.1935 14.1181 19.3381 14.6399 20.182 15.5686C21.0259 16.4974 21.5 17.757 21.5 19.0705C21.5 20.3839 21.0259 21.6436 20.182 22.5723C19.3381 23.501 18.1935 24.0228 17 24.0228ZM6.5 10.8166C7.16304 10.8166 7.79893 10.5267 8.26777 10.0107C8.73661 9.49478 9 8.79497 9 8.06529C9 7.3356 8.73661 6.63579 8.26777 6.11983C7.79893 5.60386 7.16304 5.31399 6.5 5.31399C5.83696 5.31399 5.20107 5.60386 4.73223 6.11983C4.26339 6.63579 4 7.3356 4 8.06529C4 8.79497 4.26339 9.49478 4.73223 10.0107C5.20107 10.5267 5.83696 10.8166 6.5 10.8166ZM7 21.8218C7.66304 21.8218 8.29893 21.5319 8.76777 21.0159C9.23661 20.5 9.5 19.8002 9.5 19.0705C9.5 18.3408 9.23661 17.641 8.76777 17.125C8.29893 16.609 7.66304 16.3192 7 16.3192C6.33696 16.3192 5.70107 16.609 5.23223 17.125C4.76339 17.641 4.5 18.3408 4.5 19.0705C4.5 19.8002 4.76339 20.5 5.23223 21.0159C5.70107 21.5319 6.33696 21.8218 7 21.8218ZM17 10.8166C17.663 10.8166 18.2989 10.5267 18.7678 10.0107C19.2366 9.49478 19.5 8.79497 19.5 8.06529C19.5 7.3356 19.2366 6.63579 18.7678 6.11983C18.2989 5.60386 17.663 5.31399 17 5.31399C16.337 5.31399 15.7011 5.60386 15.2322 6.11983C14.7634 6.63579 14.5 7.3356 14.5 8.06529C14.5 8.79497 14.7634 9.49478 15.2322 10.0107C15.7011 10.5267 16.337 10.8166 17 10.8166ZM17 21.8218C17.663 21.8218 18.2989 21.5319 18.7678 21.0159C19.2366 20.5 19.5 19.8002 19.5 19.0705C19.5 18.3408 19.2366 17.641 18.7678 17.125C18.2989 16.609 17.663 16.3192 17 16.3192C16.337 16.3192 15.7011 16.609 15.2322 17.125C14.7634 17.641 14.5 18.3408 14.5 19.0705C14.5 19.8002 14.7634 20.5 15.2322 21.0159C15.7011 21.5319 16.337 21.8218 17 21.8218Z" fill="white"/>
</svg>
