<svg width="24" height="27" viewBox="0 0 24 27" fill="none" xmlns="http://www.w3.org/2000/svg">
<g clip-path="url(#clip0_33_2275)">
<path d="M12 24.2124C6.477 24.2124 2 19.2854 2 13.2073C2 7.12909 6.477 2.20207 12 2.20207C17.523 2.20207 22 7.12909 22 13.2073C22 19.2854 17.523 24.2124 12 24.2124ZM12 22.0114C14.1217 22.0114 16.1566 21.0838 17.6569 19.4327C19.1571 17.7816 20 15.5423 20 13.2073C20 10.8722 19.1571 8.63288 17.6569 6.98178C16.1566 5.33069 14.1217 4.40311 12 4.40311C9.87827 4.40311 7.84344 5.33069 6.34315 6.98178C4.84285 8.63288 4 10.8722 4 13.2073C4 15.5423 4.84285 17.7816 6.34315 19.4327C7.84344 21.0838 9.87827 22.0114 12 22.0114V22.0114ZM7 14.3078H16V16.5088H12V19.8104L7 14.3078ZM12 9.9057V6.60414L17 12.1067H8V9.9057H12Z" fill="#F0F4F7"/>
</g>
<defs>
<clipPath id="clip0_33_2275">
<rect width="24" height="26.4124" fill="white" transform="translate(0 0.0010376)"/>
</clipPath>
</defs>
</svg>
