<svg width="16" height="18" viewBox="0 0 16 18" fill="none" xmlns="http://www.w3.org/2000/svg">
<g clip-path="url(#clip0_143_2611)">
<path d="M7.99935 13.5216C6.93848 13.5216 5.92107 13.0578 5.17092 12.2322C4.42078 11.4067 3.99935 10.287 3.99935 9.11948C3.99935 7.95198 4.42078 6.83229 5.17092 6.00674C5.92107 5.18119 6.93848 4.71741 7.99935 4.71741C9.06021 4.71741 10.0776 5.18119 10.8278 6.00674C11.5779 6.83229 11.9993 7.95198 11.9993 9.11948C11.9993 10.287 11.5779 11.4067 10.8278 12.2322C10.0776 13.0578 9.06021 13.5216 7.99935 13.5216ZM7.99935 12.0542C8.70659 12.0542 9.38487 11.745 9.88497 11.1946C10.3851 10.6443 10.666 9.89781 10.666 9.11948C10.666 8.34114 10.3851 7.59469 9.88497 7.04432C9.38487 6.49395 8.70659 6.18476 7.99935 6.18476C7.2921 6.18476 6.61383 6.49395 6.11373 7.04432C5.61363 7.59469 5.33268 8.34114 5.33268 9.11948C5.33268 9.89781 5.61363 10.6443 6.11373 11.1946C6.61383 11.745 7.2921 12.0542 7.99935 12.0542ZM7.33268 1.04901H8.66602V3.25005H7.33268V1.04901ZM7.33268 14.9889H8.66602V17.1899H7.33268V14.9889ZM2.34268 3.93163L3.28535 2.89421L4.69935 4.45035L3.75668 5.48777L2.34268 3.93237V3.93163ZM11.2993 13.7886L12.242 12.7512L13.656 14.3073L12.7133 15.3447L11.2993 13.7886ZM12.7133 2.89348L13.656 3.93163L12.242 5.48777L11.2993 4.45035L12.7133 2.89421V2.89348ZM3.75668 12.7512L4.69935 13.7886L3.28535 15.3447L2.34268 14.3073L3.75668 12.7512ZM15.3327 8.3858V9.85316H13.3327V8.3858H15.3327ZM2.66602 8.3858V9.85316H0.666016V8.3858H2.66602Z" fill="#F5F9FD"/>
</g>
<defs>
<clipPath id="clip0_143_2611">
<rect width="16" height="17.6083" fill="white" transform="translate(0 0.315491)"/>
</clipPath>
</defs>
</svg>
