<svg width="24" height="27" viewBox="0 0 24 27" fill="none" xmlns="http://www.w3.org/2000/svg">
<path d="M3.33933 19.0402C2.9166 18.2357 2.58799 17.3756 2.36133 16.4804C2.85464 16.2043 3.26892 15.7834 3.55836 15.2642C3.84779 14.7451 4.00109 14.1479 4.0013 13.5388C4.00151 12.9298 3.84861 12.3325 3.55953 11.8131C3.27045 11.2937 2.85645 10.8725 2.36333 10.5959C2.81536 8.79713 3.67606 7.15457 4.86433 5.82299C5.32842 6.15504 5.86695 6.33931 6.42031 6.3554C6.97367 6.37149 7.52028 6.21877 7.99966 5.91415C8.47904 5.60953 8.87248 5.16488 9.13646 4.62941C9.40043 4.09395 9.52463 3.48855 9.49533 2.88021C11.1374 2.41317 12.8606 2.41393 14.5023 2.88241C14.4733 3.49073 14.5977 4.09605 14.8619 4.63136C15.1261 5.16667 15.5197 5.61111 15.9992 5.9155C16.4786 6.21989 17.0253 6.37236 17.5786 6.35603C18.1319 6.3397 18.6704 6.15522 19.1343 5.82299C19.7133 6.4723 20.2273 7.21074 20.6593 8.03503C21.0923 8.85932 21.4163 9.71883 21.6373 10.5948C21.144 10.871 20.7297 11.2919 20.4403 11.811C20.1509 12.3302 19.9976 12.9273 19.9974 13.5364C19.9971 14.1455 20.15 14.7427 20.4391 15.2621C20.7282 15.7815 21.1422 16.2028 21.6353 16.4793C21.1833 18.2781 20.3226 19.9207 19.1343 21.2523C18.6702 20.9202 18.1317 20.7359 17.5784 20.7198C17.025 20.7038 16.4784 20.8565 15.999 21.1611C15.5196 21.4657 15.1262 21.9104 14.8622 22.4458C14.5982 22.9813 14.474 23.5867 14.5033 24.195C12.8612 24.6621 11.1381 24.6613 9.49633 24.1928C9.52537 23.5845 9.40093 22.9792 9.13675 22.4439C8.87257 21.9086 8.47897 21.4641 7.9995 21.1597C7.52003 20.8554 6.97338 20.7029 6.42005 20.7192C5.86673 20.7355 5.32829 20.92 4.86433 21.2523C4.27332 20.5886 3.76092 19.8453 3.33933 19.0402ZM8.99933 19.2559C10.065 19.9323 10.8662 21.0179 11.2493 22.3044C11.7483 22.3561 12.2493 22.3572 12.7483 22.3055C13.1317 21.0188 13.9333 19.9332 14.9993 19.257C16.0645 18.5788 17.3199 18.3573 18.5243 18.6352C18.8143 18.1862 19.0643 17.7075 19.2723 17.2068C18.4518 16.1981 17.9984 14.8915 17.9993 13.5376C17.9993 12.151 18.4693 10.8557 19.2723 9.8685C19.0629 9.36792 18.8118 8.88973 18.5223 8.44002C17.3186 8.71769 16.0641 8.49667 14.9993 7.81933C13.9337 7.14292 13.1325 6.05738 12.7493 4.7709C12.2503 4.71917 11.7493 4.71807 11.2503 4.7698C10.8669 6.05646 10.0653 7.14203 8.99933 7.81823C7.93411 8.4965 6.67881 8.71793 5.47433 8.44002C5.18489 8.88935 4.93446 9.36761 4.72633 9.8685C5.5469 10.8772 6.00021 12.1838 5.99933 13.5376C5.99933 14.9243 5.52933 16.2196 4.72633 17.2068C4.9358 17.7073 5.18687 18.1855 5.47633 18.6352C6.68005 18.3576 7.93454 18.5786 8.99933 19.2559ZM11.9993 16.8392C11.2037 16.8392 10.4406 16.4913 9.87801 15.8722C9.3154 15.253 8.99933 14.4132 8.99933 13.5376C8.99933 12.662 9.3154 11.8222 9.87801 11.2031C10.4406 10.5839 11.2037 10.2361 11.9993 10.2361C12.795 10.2361 13.558 10.5839 14.1206 11.2031C14.6833 11.8222 14.9993 12.662 14.9993 13.5376C14.9993 14.4132 14.6833 15.253 14.1206 15.8722C13.558 16.4913 12.795 16.8392 11.9993 16.8392ZM11.9993 14.6381C12.2645 14.6381 12.5189 14.5222 12.7064 14.3158C12.894 14.1094 12.9993 13.8295 12.9993 13.5376C12.9993 13.2457 12.894 12.9658 12.7064 12.7594C12.5189 12.5531 12.2645 12.4371 11.9993 12.4371C11.7341 12.4371 11.4798 12.5531 11.2922 12.7594C11.1047 12.9658 10.9993 13.2457 10.9993 13.5376C10.9993 13.8295 11.1047 14.1094 11.2922 14.3158C11.4798 14.5222 11.7341 14.6381 11.9993 14.6381Z" fill="#F0F4F7"/>
</svg>
