<svg width="24" height="27" viewBox="0 0 24 27" fill="none" xmlns="http://www.w3.org/2000/svg">
<path d="M19.3741 16.7258C20.0229 15.0291 20.1723 13.1513 19.8011 11.3564C19.43 9.56147 18.557 7.93969 17.305 6.71906C16.0529 5.49843 14.4847 4.74034 12.8209 4.55138C11.1571 4.36242 9.48124 4.75208 8.02906 5.66559L7.03706 3.75399C8.5547 2.79941 10.2733 2.29951 12.0213 2.30414C13.7693 2.30877 15.4856 2.81779 16.9991 3.7804C21.4891 6.63294 23.2091 12.7408 21.1161 17.834L22.4581 18.6858L18.2931 21.1224L18.1281 15.9345L19.3741 16.7258ZM4.62406 9.89598C3.97521 11.5926 3.82585 13.4704 4.19698 15.2654C4.56811 17.0603 5.44108 18.6821 6.69314 19.9027C7.9452 21.1233 9.51338 21.8814 11.1772 22.0704C12.8411 22.2594 14.5169 21.8697 15.9691 20.9562L16.9611 22.8678C15.4434 23.8224 13.7249 24.3223 11.9769 24.3176C10.2288 24.313 8.5125 23.804 6.99906 22.8414C2.50906 19.9888 0.789062 13.881 2.88206 8.78776L1.53906 7.93706L5.70406 5.50051L5.86906 10.6884L4.62306 9.89708L4.62406 9.89598ZM13.4141 16.4232L10.5831 13.3109L7.75506 16.4232L6.34106 14.867L10.5841 10.1986L13.4131 13.3109L16.2421 10.1986L17.6561 11.7548L13.4131 16.4232H13.4141Z" fill="#F0F4F7"/>
</svg>
