<svg width="32" height="32" viewBox="0 0 32 32" fill="none" xmlns="http://www.w3.org/2000/svg">
<path d="M16 32C24.8366 32 32 24.8366 32 16C32 7.16344 24.8366 0 16 0C7.16344 0 0 7.16344 0 16C0 24.8366 7.16344 32 16 32Z" fill="#516AFF"/>
<path d="M18.286 12.479L20.486 13.736V7.45L16.086 5.25L9.25 9.1V22.771L16.086 26.7L22.843 22.693V15.936L16.321 12.007L14.121 13.107L20.643 16.957L20.721 21.593L16.086 24.186L11.371 21.514V10.2L16.086 7.607L18.286 8.786V12.479Z" fill="white"/>
<path d="M15.85 16.25L17.343 15.464L18.993 16.486L14.121 19.236V13.579L15.85 14.6" fill="white"/>
</svg>
