<svg width="20" height="16" viewBox="0 0 20 16" fill="none" xmlns="http://www.w3.org/2000/svg">
  <g clip-path="url(#clip0_1_1963)">
    <path
      d="M5.93977 4.5V2.625C5.93977 2.45924 6.02422 2.30027 6.17456 2.18306C6.32489 2.06585 6.52878 2 6.74139 2H16.3609C16.5735 2 16.7774 2.06585 16.9277 2.18306C17.078 2.30027 17.1625 2.45924 17.1625 2.625V11.375C17.1625 11.5408 17.078 11.6997 16.9277 11.8169C16.7774 11.9342 16.5735 12 16.3609 12H13.956V13.875C13.956 14.22 13.5953 14.5 13.1488 14.5H3.54051C3.4348 14.5005 3.33 14.4847 3.23214 14.4535C3.13429 14.4223 3.04529 14.3764 2.97028 14.3183C2.89527 14.2602 2.83572 14.1912 2.79504 14.1151C2.75437 14.039 2.73338 13.9574 2.73328 13.875L2.73568 5.125C2.73568 4.78 3.09641 4.5 3.54211 4.5H5.93977ZM4.33812 5.75L4.33652 13.25H12.3527V5.75H4.33812ZM7.54301 4.5H13.956V10.75H15.5592V3.25H7.54301V4.5ZM5.93977 7.625H10.7495V8.875H5.93977V7.625ZM5.93977 10.125H10.7495V11.375H5.93977V10.125Z"
      fill="white" />
  </g>
  <defs>
    <clipPath id="clip0_1_1963">
      <rect width="19.2389" height="15" fill="white" transform="translate(0.328369 0.75)" />
    </clipPath>
  </defs>
</svg>