<svg width="50" height="39" viewBox="0 0 50 39" fill="none" xmlns="http://www.w3.org/2000/svg">
<path d="M33.9609 0H27.25C26.625 0 26.0234 0.3 25.5625 0.84L17.8828 9.84C17.875 9.85 17.8672 9.87 17.8594 9.88C16.5625 11.44 16.5859 13.93 17.6953 15.48C18.6875 16.87 20.7734 17.24 22.0781 15.75C22.0859 15.74 22.1016 15.74 22.1094 15.73L28.3516 8.41C28.8594 7.82 29.6562 7.86 30.1172 8.51C30.5859 9.16 30.5469 10.17 30.0391 10.77L28 13.16L39.375 24.98C39.6016 25.22 39.8047 25.48 39.9922 25.75V6.4L35.7266 0.94C35.2656 0.34 34.625 0 33.9609 0ZM42.5 6.42V28.81C42.5 30.58 43.6172 32.01 45 32.01H50V6.42H42.5ZM46.25 28.81C45.5625 28.81 45 28.09 45 27.21C45 26.33 45.5625 25.61 46.25 25.61C46.9375 25.61 47.5 26.33 47.5 27.21C47.5 28.09 46.9375 28.81 46.25 28.81ZM0 32H5C6.38281 32 7.5 30.57 7.5 28.8V6.42H0V32ZM3.75 25.61C4.4375 25.61 5 26.33 5 27.21C5 28.09 4.4375 28.81 3.75 28.81C3.0625 28.81 2.5 28.09 2.5 27.21C2.5 26.32 3.0625 25.61 3.75 25.61ZM37.8047 27.47L26.1406 15.35L23.7969 18.1C21.4766 20.81 17.9219 20.55 15.8516 17.66C13.75 14.72 13.9141 10.17 16.1953 7.49L22.5859 0H16.0391C15.375 0 14.7422 0.34 14.2734 0.94L10 6.4V28.79H11.4297L18.5 36.98C20.6406 39.21 23.7891 38.79 25.5312 36.05L25.5469 36.03L26.9453 37.58C28.1875 38.88 30.0234 38.63 31.0312 37.04L33.4844 33.18L33.9062 33.62C34.9766 34.73 36.5547 34.53 37.4219 33.15L38.1641 31.98C39.0391 30.6 38.875 28.59 37.8047 27.47Z" fill="white"/>
</svg>
