<svg width="32" height="32" viewBox="0 0 32 32" fill="none" xmlns="http://www.w3.org/2000/svg">
<path d="M16 32C24.8366 32 32 24.8366 32 16C32 7.16344 24.8366 0 16 0C7.16344 0 0 7.16344 0 16C0 24.8366 7.16344 32 16 32Z" fill="#F7931A"/>
<path d="M23.1889 14.02C23.5029 11.92 21.9059 10.797 19.7239 10.045L20.4319 7.205L18.6999 6.775L18.0099 9.54C17.5559 9.426 17.0899 9.32 16.6249 9.214L17.3199 6.431L15.5999 6L14.8919 8.839C14.5159 8.753 14.1459 8.669 13.7919 8.579V8.57L11.4079 7.97L10.9479 9.816C10.9479 9.816 12.2309 10.11 12.2039 10.128C12.4424 10.159 12.6593 10.2822 12.8081 10.4712C12.9568 10.6602 13.0257 10.8999 12.9999 11.139L12.1999 14.374C12.261 14.3893 12.3211 14.4083 12.3799 14.431L12.1969 14.386L11.0669 18.918C11.0419 18.9971 11.0015 19.0705 10.9481 19.1339C10.8947 19.1973 10.8292 19.2496 10.7556 19.2877C10.6819 19.3258 10.6014 19.349 10.5188 19.3559C10.4361 19.3628 10.3529 19.3533 10.2739 19.328C10.2919 19.353 9.01791 19.015 9.01791 19.015L8.15991 20.993L10.4099 21.554C10.8279 21.654 11.2379 21.769 11.6409 21.872L10.9259 24.744L12.6529 25.174L13.3609 22.334C13.8329 22.461 14.2909 22.579 14.7389 22.691L14.0329 25.519L15.7609 25.949L16.4759 23.083C19.4239 23.641 21.6399 23.416 22.5759 20.75C23.3279 18.604 22.5389 17.365 20.9879 16.558C21.5844 16.438 22.1244 16.124 22.5237 15.6649C22.9229 15.2057 23.1589 14.6274 23.1949 14.02H23.1889ZM19.2389 19.558C18.7059 21.705 15.0909 20.544 13.9189 20.253L14.8689 16.448C16.0409 16.741 19.7999 17.32 19.2389 19.558ZM19.7739 13.989C19.2869 15.942 16.2789 14.949 15.3039 14.706L16.1639 11.256C17.1389 11.499 20.2819 11.956 19.7739 13.989Z" fill="white"/>
</svg>
